solid Untitled-55e68823
facet normal 5.61322055718802e-017 -4.30540032354983e-017 -1.0
  outer loop
    vertex 0.0 35.0 0.0
    vertex 3.27259338968745 10.0705523608202 0.0
    vertex 0.0 0.0 0.0
  endloop
endfacet
facet normal 5.61322055718802e-017 -4.30540032354983e-017 -1.0
  outer loop
    vertex 3.27259338968745 10.0705523608202 0.0
    vertex 0.0 35.0 0.0
    vertex 4.07179676972449 12.0 0.0
  endloop
endfacet
facet normal 5.61322055718802e-017 -4.30540032354983e-017 -1.0
  outer loop
    vertex 4.07179676972449 12.0 0.0
    vertex 0.0 35.0 0.0
    vertex 5.34314575050762 13.6568542494924 0.0
  endloop
endfacet
facet normal 5.61322055718802e-017 -4.30540032354983e-017 -1.0
  outer loop
    vertex 5.34314575050762 13.6568542494924 0.0
    vertex 0.0 35.0 0.0
    vertex 22.0 35.0 0.0
  endloop
endfacet
facet normal 5.61322055718802e-017 -4.30540032354983e-017 -1.0
  outer loop
    vertex 0.0 0.0 0.0
    vertex 3.27259338968745 10.0705523608202 0.0
    vertex 3.0 8.0 0.0
  endloop
endfacet
facet normal 5.61322055718802e-017 -4.30540032354983e-017 -1.0
  outer loop
    vertex 5.34314575050762 13.6568542494924 0.0
    vertex 22.0 35.0 0.0
    vertex 7.0 14.9282032302755 0.0
  endloop
endfacet
facet normal 5.61322055718802e-017 -4.30540032354983e-017 -1.0
  outer loop
    vertex 7.0 14.9282032302755 0.0
    vertex 22.0 35.0 0.0
    vertex 8.92944763917984 15.7274066103126 0.0
  endloop
endfacet
facet normal 5.61322055718802e-017 -4.30540032354983e-017 -1.0
  outer loop
    vertex 8.92944763917984 15.7274066103126 0.0
    vertex 22.0 35.0 0.0
    vertex 11.0 16.0 0.0
  endloop
endfacet
facet normal 5.61322055718802e-017 -4.30540032354983e-017 -1.0
  outer loop
    vertex 11.0 16.0 0.0
    vertex 22.0 35.0 0.0
    vertex 13.0705523608202 15.7274066103125 0.0
  endloop
endfacet
facet normal 5.61322055718802e-017 -4.30540032354983e-017 -1.0
  outer loop
    vertex 13.0705523608202 15.7274066103125 0.0
    vertex 22.0 35.0 0.0
    vertex 15.0 14.9282032302755 0.0
  endloop
endfacet
facet normal 5.61322055718802e-017 -4.30540032354983e-017 -1.0
  outer loop
    vertex 15.0 14.9282032302755 0.0
    vertex 22.0 35.0 0.0
    vertex 16.6568542494924 13.6568542494924 0.0
  endloop
endfacet
facet normal 5.61322055718802e-017 -4.30540032354983e-017 -1.0
  outer loop
    vertex 16.6568542494924 13.6568542494924 0.0
    vertex 22.0 35.0 0.0
    vertex 17.9282032302755 12.0 0.0
  endloop
endfacet
facet normal 5.61322055718802e-017 -4.30540032354983e-017 -1.0
  outer loop
    vertex 17.9282032302755 12.0 0.0
    vertex 22.0 35.0 0.0
    vertex 18.7274066103125 10.0705523608202 0.0
  endloop
endfacet
facet normal 5.61322055718802e-017 -4.30540032354983e-017 -1.0
  outer loop
    vertex 18.7274066103125 10.0705523608202 0.0
    vertex 22.0 35.0 0.0
    vertex 19.0 8.0 0.0
  endloop
endfacet
facet normal 5.61322055718802e-017 -4.30540032354983e-017 -1.0
  outer loop
    vertex 18.7274066103125 5.92944763917983 0.0
    vertex 18.5 0.0 4.77657237513269e-015
    vertex 18.5 5.38043951639 4.77657237513269e-015
  endloop
endfacet
facet normal 5.61322055718802e-017 -4.30540032354983e-017 -1.0
  outer loop
    vertex 18.5 0.0 4.77657237513269e-015
    vertex 18.7274066103125 5.92944763917983 0.0
    vertex 22.0 0.0 0.0
  endloop
endfacet
facet normal 5.61322055718802e-017 -4.30540032354983e-017 -1.0
  outer loop
    vertex 22.0 0.0 0.0
    vertex 18.7274066103125 5.92944763917983 0.0
    vertex 19.0 8.0 0.0
  endloop
endfacet
facet normal 5.61322055718802e-017 -4.30540032354983e-017 -1.0
  outer loop
    vertex 22.0 0.0 0.0
    vertex 19.0 8.0 0.0
    vertex 22.0 35.0 0.0
  endloop
endfacet
facet normal 5.61322055718802e-017 -4.30540032354983e-017 -1.0
  outer loop
    vertex 3.0 8.0 0.0
    vertex 3.5 0.0 0.0
    vertex 0.0 0.0 0.0
  endloop
endfacet
facet normal 5.61322055718802e-017 -4.30540032354983e-017 -1.0
  outer loop
    vertex 3.5 0.0 0.0
    vertex 3.0 8.0 0.0
    vertex 3.27259338968745 5.92944763917984 0.0
  endloop
endfacet
facet normal 5.61322055718802e-017 -4.30540032354983e-017 -1.0
  outer loop
    vertex 3.5 0.0 0.0
    vertex 3.27259338968745 5.92944763917984 0.0
    vertex 3.5 5.38043951638999 0.0
  endloop
endfacet
facet normal 1.0 0.0 5.61322055718802e-017
  outer loop
    vertex 22.0 35.0 0.0
    vertex 22.0 8.61080064709966e-017 2.0
    vertex 22.0 0.0 0.0
  endloop
endfacet
facet normal 1.0 0.0 5.61322055718802e-017
  outer loop
    vertex 22.0 8.61080064709966e-017 2.0
    vertex 22.0 35.0 0.0
    vertex 22.0 35.0 2.0
  endloop
endfacet
facet normal 0.0 1.0 -4.30540032354983e-017
  outer loop
    vertex -1.1226441114376e-016 35.0 2.0
    vertex 22.0 35.0 0.0
    vertex 0.0 35.0 0.0
  endloop
endfacet
facet normal 0.0 1.0 -4.30540032354983e-017
  outer loop
    vertex 22.0 35.0 0.0
    vertex -1.1226441114376e-016 35.0 2.0
    vertex 22.0 35.0 2.0
  endloop
endfacet
facet normal -1.0 0.0 -5.61322055718802e-017
  outer loop
    vertex -1.1226441114376e-016 8.61080064709966e-017 2.0
    vertex 0.0 35.0 0.0
    vertex 0.0 0.0 0.0
  endloop
endfacet
facet normal -1.0 0.0 -5.61322055718802e-017
  outer loop
    vertex 0.0 35.0 0.0
    vertex -1.1226441114376e-016 8.61080064709966e-017 2.0
    vertex -1.1226441114376e-016 35.0 2.0
  endloop
endfacet
facet normal 0.0 -1.0 4.30540032354983e-017
  outer loop
    vertex 3.5 8.61080064709966e-017 2.0
    vertex 0.0 0.0 0.0
    vertex 3.5 0.0 0.0
  endloop
endfacet
facet normal 0.0 -1.0 4.30540032354983e-017
  outer loop
    vertex 0.0 0.0 0.0
    vertex 3.5 8.61080064709966e-017 2.0
    vertex -1.1226441114376e-016 8.61080064709966e-017 2.0
  endloop
endfacet
facet normal -0.500000000000001 -0.866025403784438 9.2197577506188e-018
  outer loop
    vertex 15.0 14.9282032302755 2.0
    vertex 13.0705523608202 15.7274066103125 0.0
    vertex 15.0 14.9282032302755 0.0
  endloop
endfacet
facet normal -0.258819045102521 -0.965925826289068 2.70588898046885e-017
  outer loop
    vertex 13.0705523608202 15.7274066103125 0.0
    vertex 15.0 14.9282032302755 2.0
    vertex 13.0705523608202 15.7274066103125 2.0
  endloop
endfacet
facet normal -0.707106781186548 -0.707106781186547 -9.24768555778541e-018
  outer loop
    vertex 16.6568542494924 13.6568542494924 2.0
    vertex 15.0 14.9282032302755 0.0
    vertex 16.6568542494924 13.6568542494924 0.0
  endloop
endfacet
facet normal -0.500000000000001 -0.866025403784438 9.2197577506188e-018
  outer loop
    vertex 15.0 14.9282032302755 0.0
    vertex 16.6568542494924 13.6568542494924 2.0
    vertex 15.0 14.9282032302755 2.0
  endloop
endfacet
facet normal -0.707106781186548 -0.707106781186547 -9.24768555778541e-018
  outer loop
    vertex 16.6568542494924 13.6568542494924 2.0
    vertex 17.9282032302755 12.0 0.0
    vertex 17.9282032302755 12.0 2.0
  endloop
endfacet
facet normal -0.866025403784439 -0.5 -2.70849143779495e-017
  outer loop
    vertex 17.9282032302755 12.0 0.0
    vertex 16.6568542494924 13.6568542494924 2.0
    vertex 16.6568542494924 13.6568542494924 0.0
  endloop
endfacet
facet normal -0.866025403784439 -0.5 -2.70849143779495e-017
  outer loop
    vertex 17.9282032302755 12.0 2.0
    vertex 18.7274066103125 10.0705523608202 0.0
    vertex 18.7274066103125 10.0705523608202 2.0
  endloop
endfacet
facet normal -0.965925826289068 -0.25881904510252 -4.30763510431937e-017
  outer loop
    vertex 18.7274066103125 10.0705523608202 0.0
    vertex 17.9282032302755 12.0 2.0
    vertex 17.9282032302755 12.0 0.0
  endloop
endfacet
facet normal -0.965925826289068 -0.25881904510252 -4.30763510431937e-017
  outer loop
    vertex 18.7274066103125 10.0705523608202 2.0
    vertex 19.0 8.0 0.0
    vertex 19.0 8.0 2.0
  endloop
endfacet
facet normal -1.0 -8.01999890608221e-017 -5.61322055718802e-017
  outer loop
    vertex 19.0 8.0 0.0
    vertex 18.7274066103125 10.0705523608202 2.0
    vertex 18.7274066103125 10.0705523608202 0.0
  endloop
endfacet
facet normal -1.0 -8.01999890608221e-017 -5.61322055718802e-017
  outer loop
    vertex 19.0 8.0 2.0
    vertex 18.7274066103125 5.92944763917983 0.0
    vertex 18.7274066103125 5.92944763917983 2.0
  endloop
endfacet
facet normal -0.965925826289068 0.258819045102523 -6.53627430536987e-017
  outer loop
    vertex 18.7274066103125 5.92944763917983 0.0
    vertex 19.0 8.0 2.0
    vertex 19.0 8.0 0.0
  endloop
endfacet
facet normal -0.965925826289068 0.258819045102523 -6.53627430536988e-017
  outer loop
    vertex 18.7274066103125 5.92944763917983 2.0
    vertex 18.5 5.38043951639 4.77657237513269e-015
    vertex 18.5 5.38043951639 2.0
  endloop
endfacet
facet normal -0.923879532511285 0.382683432365094 -6.83354495777944e-017
  outer loop
    vertex 18.5 5.38043951639 4.77657237513269e-015
    vertex 18.7274066103125 5.92944763917983 2.0
    vertex 18.7274066103125 5.92944763917983 0.0
  endloop
endfacet
facet normal -1.0 0.0 -5.61322055718802e-017
  outer loop
    vertex 18.5 8.61080064709966e-017 2.0
    vertex 18.5 5.38043951639 4.77657237513269e-015
    vertex 18.5 0.0 4.77657237513269e-015
  endloop
endfacet
facet normal -1.0 0.0 -5.61322055718802e-017
  outer loop
    vertex 18.5 5.38043951639 4.77657237513269e-015
    vertex 18.5 8.61080064709966e-017 2.0
    vertex 18.5 5.38043951639 2.0
  endloop
endfacet
facet normal 5.87573035695871e-032 -1.0 4.30540032354983e-017
  outer loop
    vertex 22.0 8.61080064709966e-017 2.0
    vertex 18.5 0.0 4.77657237513269e-015
    vertex 22.0 0.0 0.0
  endloop
endfacet
facet normal 5.87573035695871e-032 -1.0 4.30540032354983e-017
  outer loop
    vertex 18.5 0.0 4.77657237513269e-015
    vertex 22.0 8.61080064709966e-017 2.0
    vertex 18.5 8.61080064709966e-017 2.0
  endloop
endfacet
facet normal -5.61322055718802e-017 4.30540032354983e-017 1.0
  outer loop
    vertex 3.5 8.61080064709966e-017 2.0
    vertex -1.1226441114376e-016 35.0 2.0
    vertex -1.1226441114376e-016 8.61080064709966e-017 2.0
  endloop
endfacet
facet normal -5.61322055718802e-017 4.30540032354983e-017 1.0
  outer loop
    vertex -1.1226441114376e-016 35.0 2.0
    vertex 3.5 8.61080064709966e-017 2.0
    vertex 3.0 8.0 2.0
  endloop
endfacet
facet normal -5.61322055718802e-017 4.30540032354983e-017 1.0
  outer loop
    vertex 3.0 8.0 2.0
    vertex 3.5 8.61080064709966e-017 2.0
    vertex 3.27259338968745 5.92944763917984 2.0
  endloop
endfacet
facet normal -5.61322055718802e-017 4.30540032354983e-017 1.0
  outer loop
    vertex 3.27259338968745 5.92944763917984 2.0
    vertex 3.5 8.61080064709966e-017 2.0
    vertex 3.5 5.38043951638999 2.0
  endloop
endfacet
facet normal -5.61322055718802e-017 4.30540032354983e-017 1.0
  outer loop
    vertex 22.0 8.61080064709966e-017 2.0
    vertex 18.5 5.38043951639 2.0
    vertex 18.5 8.61080064709966e-017 2.0
  endloop
endfacet
facet normal -5.61322055718802e-017 4.30540032354983e-017 1.0
  outer loop
    vertex 18.5 5.38043951639 2.0
    vertex 22.0 8.61080064709966e-017 2.0
    vertex 18.7274066103125 5.92944763917983 2.0
  endloop
endfacet
facet normal -5.61322055718802e-017 4.30540032354983e-017 1.0
  outer loop
    vertex 18.7274066103125 5.92944763917983 2.0
    vertex 22.0 8.61080064709966e-017 2.0
    vertex 19.0 8.0 2.0
  endloop
endfacet
facet normal -5.61322055718802e-017 4.30540032354983e-017 1.0
  outer loop
    vertex -1.1226441114376e-016 35.0 2.0
    vertex 5.34314575050762 13.6568542494924 2.0
    vertex 22.0 35.0 2.0
  endloop
endfacet
facet normal -5.61322055718802e-017 4.30540032354983e-017 1.0
  outer loop
    vertex 5.34314575050762 13.6568542494924 2.0
    vertex -1.1226441114376e-016 35.0 2.0
    vertex 4.07179676972449 12.0 2.0
  endloop
endfacet
facet normal -5.61322055718802e-017 4.30540032354983e-017 1.0
  outer loop
    vertex 4.07179676972449 12.0 2.0
    vertex -1.1226441114376e-016 35.0 2.0
    vertex 3.27259338968745 10.0705523608202 2.0
  endloop
endfacet
facet normal -5.61322055718802e-017 4.30540032354983e-017 1.0
  outer loop
    vertex 3.27259338968745 10.0705523608202 2.0
    vertex -1.1226441114376e-016 35.0 2.0
    vertex 3.0 8.0 2.0
  endloop
endfacet
facet normal -5.61322055718802e-017 4.30540032354983e-017 1.0
  outer loop
    vertex 22.0 35.0 2.0
    vertex 5.34314575050762 13.6568542494924 2.0
    vertex 7.0 14.9282032302755 2.0
  endloop
endfacet
facet normal -5.61322055718802e-017 4.30540032354983e-017 1.0
  outer loop
    vertex 22.0 35.0 2.0
    vertex 7.0 14.9282032302755 2.0
    vertex 8.92944763917984 15.7274066103126 2.0
  endloop
endfacet
facet normal -5.61322055718802e-017 4.30540032354983e-017 1.0
  outer loop
    vertex 22.0 35.0 2.0
    vertex 8.92944763917984 15.7274066103126 2.0
    vertex 11.0 16.0 2.0
  endloop
endfacet
facet normal -5.61322055718802e-017 4.30540032354983e-017 1.0
  outer loop
    vertex 22.0 35.0 2.0
    vertex 11.0 16.0 2.0
    vertex 13.0705523608202 15.7274066103125 2.0
  endloop
endfacet
facet normal -5.61322055718802e-017 4.30540032354983e-017 1.0
  outer loop
    vertex 22.0 35.0 2.0
    vertex 13.0705523608202 15.7274066103125 2.0
    vertex 15.0 14.9282032302755 2.0
  endloop
endfacet
facet normal -5.61322055718802e-017 4.30540032354983e-017 1.0
  outer loop
    vertex 22.0 35.0 2.0
    vertex 15.0 14.9282032302755 2.0
    vertex 16.6568542494924 13.6568542494924 2.0
  endloop
endfacet
facet normal -5.61322055718802e-017 4.30540032354983e-017 1.0
  outer loop
    vertex 22.0 35.0 2.0
    vertex 16.6568542494924 13.6568542494924 2.0
    vertex 17.9282032302755 12.0 2.0
  endloop
endfacet
facet normal -5.61322055718802e-017 4.30540032354983e-017 1.0
  outer loop
    vertex 22.0 35.0 2.0
    vertex 17.9282032302755 12.0 2.0
    vertex 18.7274066103125 10.0705523608202 2.0
  endloop
endfacet
facet normal -5.61322055718802e-017 4.30540032354983e-017 1.0
  outer loop
    vertex 22.0 35.0 2.0
    vertex 18.7274066103125 10.0705523608202 2.0
    vertex 19.0 8.0 2.0
  endloop
endfacet
facet normal -5.61322055718802e-017 4.30540032354983e-017 1.0
  outer loop
    vertex 22.0 35.0 2.0
    vertex 19.0 8.0 2.0
    vertex 22.0 8.61080064709966e-017 2.0
  endloop
endfacet
facet normal 1.0 -1.31028630372931e-016 5.61322055718802e-017
  outer loop
    vertex 3.5 5.38043951638999 0.0
    vertex 3.5 8.61080064709966e-017 2.0
    vertex 3.5 0.0 0.0
  endloop
endfacet
facet normal 1.0 -1.31028630372931e-016 5.61322055718802e-017
  outer loop
    vertex 3.5 8.61080064709966e-017 2.0
    vertex 3.5 5.38043951638999 0.0
    vertex 3.5 5.38043951638999 2.0
  endloop
endfacet
facet normal 0.965925826289068 0.25881904510252 4.30763510431937e-017
  outer loop
    vertex 3.27259338968745 5.92944763917984 0.0
    vertex 3.5 5.38043951638999 2.0
    vertex 3.5 5.38043951638999 0.0
  endloop
endfacet
facet normal 0.923879532511287 0.38268343236509 3.53833421073579e-017
  outer loop
    vertex 3.5 5.38043951638999 2.0
    vertex 3.27259338968745 5.92944763917984 0.0
    vertex 3.27259338968745 5.92944763917984 2.0
  endloop
endfacet
facet normal 1.0 -4.63377714573639e-016 5.61322055718802e-017
  outer loop
    vertex 3.0 8.0 0.0
    vertex 3.27259338968745 5.92944763917984 2.0
    vertex 3.27259338968745 5.92944763917984 0.0
  endloop
endfacet
facet normal 0.965925826289068 0.25881904510252 4.30763510431937e-017
  outer loop
    vertex 3.27259338968745 5.92944763917984 2.0
    vertex 3.0 8.0 0.0
    vertex 3.0 8.0 2.0
  endloop
endfacet
facet normal 0.965925826289068 -0.258819045102521 6.53627430536987e-017
  outer loop
    vertex 3.27259338968745 10.0705523608202 0.0
    vertex 3.0 8.0 2.0
    vertex 3.0 8.0 0.0
  endloop
endfacet
facet normal 1.0 -4.63377714573639e-016 5.61322055718802e-017
  outer loop
    vertex 3.0 8.0 2.0
    vertex 3.27259338968745 10.0705523608202 0.0
    vertex 3.27259338968745 10.0705523608202 2.0
  endloop
endfacet
facet normal 0.866025403784438 -0.5 7.01389176134478e-017
  outer loop
    vertex 4.07179676972449 12.0 0.0
    vertex 3.27259338968745 10.0705523608202 2.0
    vertex 3.27259338968745 10.0705523608202 0.0
  endloop
endfacet
facet normal 0.965925826289068 -0.258819045102521 6.53627430536987e-017
  outer loop
    vertex 3.27259338968745 10.0705523608202 2.0
    vertex 4.07179676972449 12.0 0.0
    vertex 4.07179676972449 12.0 2.0
  endloop
endfacet
facet normal 0.707106781186547 -0.707106781186548 7.01352408478822e-017
  outer loop
    vertex 5.34314575050762 13.6568542494924 0.0
    vertex 4.07179676972449 12.0 2.0
    vertex 4.07179676972449 12.0 0.0
  endloop
endfacet
facet normal 0.866025403784438 -0.5 7.01389176134478e-017
  outer loop
    vertex 4.07179676972449 12.0 2.0
    vertex 5.34314575050762 13.6568542494924 0.0
    vertex 5.34314575050762 13.6568542494924 2.0
  endloop
endfacet
facet normal 0.5 -0.866025403784439 6.5351963322499e-017
  outer loop
    vertex 7.0 14.9282032302755 2.0
    vertex 5.34314575050762 13.6568542494924 0.0
    vertex 7.0 14.9282032302755 0.0
  endloop
endfacet
facet normal 0.707106781186547 -0.707106781186548 7.01352408478822e-017
  outer loop
    vertex 5.34314575050762 13.6568542494924 0.0
    vertex 7.0 14.9282032302755 2.0
    vertex 5.34314575050762 13.6568542494924 2.0
  endloop
endfacet
facet normal 0.25881904510252 -0.965925826289069 5.61150574959133e-017
  outer loop
    vertex 8.92944763917984 15.7274066103126 2.0
    vertex 7.0 14.9282032302755 0.0
    vertex 8.92944763917984 15.7274066103126 0.0
  endloop
endfacet
facet normal 0.5 -0.866025403784439 6.5351963322499e-017
  outer loop
    vertex 7.0 14.9282032302755 0.0
    vertex 8.92944763917984 15.7274066103126 2.0
    vertex 7.0 14.9282032302755 2.0
  endloop
endfacet
facet normal -5.79222143217049e-016 -1.0 4.30540032354983e-017
  outer loop
    vertex 11.0 16.0 2.0
    vertex 8.92944763917984 15.7274066103126 0.0
    vertex 11.0 16.0 0.0
  endloop
endfacet
facet normal 0.25881904510252 -0.965925826289069 5.61150574959133e-017
  outer loop
    vertex 8.92944763917984 15.7274066103126 0.0
    vertex 11.0 16.0 2.0
    vertex 8.92944763917984 15.7274066103126 2.0
  endloop
endfacet
facet normal -0.258819045102521 -0.965925826289068 2.70588898046885e-017
  outer loop
    vertex 13.0705523608202 15.7274066103125 2.0
    vertex 11.0 16.0 0.0
    vertex 13.0705523608202 15.7274066103125 0.0
  endloop
endfacet
facet normal -5.79222143217049e-016 -1.0 4.30540032354983e-017
  outer loop
    vertex 11.0 16.0 0.0
    vertex 13.0705523608202 15.7274066103125 2.0
    vertex 11.0 16.0 2.0
  endloop
endfacet
endsolid Untitled-55e68823
